# xmcd
#
# Track frame offsets:
#	150
#	14347
#	41867
#	57800
#	72382
#	84097
#	103295
#	121630
#	137465
#	148512
#	160082
#	174230
#	189542
#	205677
#	217725
#	233792
#	252982
#	269705
#	287732
#
# Disc length: 4092 seconds
#
# Revision: 4
# Processed by: cddbd v1.5.2PL0 Copyright (c) Steve Scherf et al.
# Submitted via: EZCDAudioConverter 3.0.8.1
#
DISCID=0b0ffa13
DTITLE=Taj Mahal - In Progress and In Motion 1965-1998 [CD3)
DYEAR=1900
DGENRE=Blues
TTITLE0=When I Feel The Sea Beneath My Soul
TTITLE1=West Indian Revelation
TTITLE2=Eighteen Hammers
TTITLE3=Johnny Too Bad
TTITLE4=Slave Driver
TTITLE5=(Clara) St. Kitts Woman
TTITLE6=Do I Love Her
TTITLE7=Everybody Is Somebody
TTITLE8=But I Rode Some
TTITLE9=Crossing
TTITLE10=Sentidos Dulce (Sweet Feelings)
TTITLE11=The Most Recent Evolution Of Muthafusticus Modernusticus
TTITLE12=Curry
TTITLE13=Follow The Drinking Gourd
TTITLE14=Day-O (The Banana Boat Song)
TTITLE15=Little Brown Dog
TTITLE16=Senor Blues
TTITLE17=Ain't That A Lot Of Love
TTITLE18=Take A Giant Step
EXTD=
EXTT0=
EXTT1=
EXTT2=
EXTT3=
EXTT4=
EXTT5=
EXTT6=
EXTT7=
EXTT8=
EXTT9=
EXTT10=
EXTT11=
EXTT12=
EXTT13=
EXTT14=
EXTT15=
EXTT16=
EXTT17=
EXTT18=
PLAYORDER=
